<svg id="layer1" data-name="layer1" xmlns="http://www.w3.org/2000/svg" viewBox="0 0 510.93 233.24">
    <title>SVG</title>
    <path
        d="M325.33,430.06l-51.86-135.5h-.83q1.46,16.11,1.46,38.27v97.23H257.69V277.21h26.76l48.41,126.08h.83l48.83-126.08h26.55V430.06H391.3V331.57q0-16.94,1.46-36.8h-.83L339.65,430.06Z"
        transform="translate(-256.54 -267.38)" />
    <path
        d="M518.85,430.06l-3.45-16.31h-.84q-8.56,10.77-17.09,14.58t-21.28,3.82q-17,0-26.71-8.78t-9.67-25q0-34.71,55.51-36.38l19.45-.63v-7.11q0-13.49-5.8-19.92t-18.56-6.43q-14.32,0-32.41,8.79l-5.33-13.28a81.13,81.13,0,0,1,18.56-7.21,80,80,0,0,1,20.23-2.62q20.49,0,30.37,9.1t9.88,29.17v78.2Zm-39.21-12.23q16.22,0,25.46-8.89t9.25-24.88V373.71l-17.35.73q-20.7.74-29.85,6.43T458,398.59q0,9.41,5.7,14.32T479.64,417.83Z"
        transform="translate(-256.54 -267.38)" />
    <path d="M584.82,430.06H567.46V267.38h17.36Z" transform="translate(-256.54 -267.38)" />
    <path
        d="M620.15,284.42q0-6,2.93-8.73a10.82,10.82,0,0,1,14.53.06q3,2.82,3,8.67t-3,8.73a10.6,10.6,0,0,1-14.53,0Q620.16,290.29,620.15,284.42ZM639,430.06H621.62V315.47H639Z"
        transform="translate(-256.54 -267.38)" />
    <path
        d="M692.92,371.41a203.76,203.76,0,0,1,13.7-16.73l37-39.21h20.59L717.8,364.3l49.66,65.76h-21L706,375.9l-13.07,11.29v42.87H675.77V267.38h17.15v86.25q0,5.76-.84,17.78Z"
        transform="translate(-256.54 -267.38)" />
    <path d="M259.32,487.2h-2.78V447.32h21.85v2.56H259.32v16.91h18v2.6h-18Z" transform="translate(-256.54 -267.38)" />
    <path
        d="M295.57,457a22.69,22.69,0,0,1,4,.38l-.52,2.59a15.8,15.8,0,0,0-3.85-.47A7.5,7.5,0,0,0,289,462.7a13.19,13.19,0,0,0-2.42,8.13V487.2h-2.7V457.55h2.29l.27,5.34h.19a12.58,12.58,0,0,1,3.9-4.59A9.16,9.16,0,0,1,295.57,457Z"
        transform="translate(-256.54 -267.38)" />
    <path
        d="M330.16,472.33q0,7.26-3.52,11.34t-9.71,4.07a12.57,12.57,0,0,1-6.88-1.88,12,12,0,0,1-4.55-5.4,19.56,19.56,0,0,1-1.58-8.13q0-7.26,3.52-11.3a12.1,12.1,0,0,1,9.65-4,11.88,11.88,0,0,1,9.59,4.1Q330.16,465.19,330.16,472.33Zm-23.41,0c0,4.08.9,7.25,2.69,9.54a10.14,10.14,0,0,0,15.19,0c1.79-2.29,2.69-5.46,2.69-9.54s-.9-7.26-2.71-9.52a9.24,9.24,0,0,0-7.63-3.38,9.09,9.09,0,0,0-7.57,3.37Q306.76,466.16,306.75,472.33Z"
        transform="translate(-256.54 -267.38)" />
    <path
        d="M359,487.2V468c0-3-.62-5.15-1.88-6.51s-3.2-2-5.84-2c-3.54,0-6.14.9-7.78,2.69s-2.47,4.69-2.47,8.71V487.2h-2.7V457.55h2.29l.52,4.06h.16q2.9-4.64,10.28-4.63,10.1,0,10.1,10.82v19.4Z"
        transform="translate(-256.54 -267.38)" />
    <path
        d="M379.15,485.34a20.29,20.29,0,0,0,4.47-.43v2.18a14.23,14.23,0,0,1-4.53.65q-3.93,0-5.79-2.1t-1.87-6.6V459.89H367v-1.58l4.39-1.23,1.36-6.71h1.39v7.18h8.7v2.34h-8.7v18.77a8.58,8.58,0,0,0,1.2,5A4.37,4.37,0,0,0,379.15,485.34Z"
        transform="translate(-256.54 -267.38)" />
    <path d="M427,487.2h-21.8V447.32H427v2.56H408V465H426v2.56H408v17.1h19Z" transform="translate(-256.54 -267.38)" />
    <path
        d="M456,487.2V468q0-4.47-1.88-6.51c-1.26-1.35-3.2-2-5.84-2q-5.31,0-7.79,2.69t-2.46,8.71V487.2h-2.7V457.55h2.29l.51,4.06h.17q2.9-4.64,10.28-4.63,10.1,0,10.09,10.82v19.4Z"
        transform="translate(-256.54 -267.38)" />
    <path
        d="M479.17,457a12.37,12.37,0,0,1,5.57,1.17,11.12,11.12,0,0,1,4.2,4h.16q-.17-3.44-.16-6.74V444.75h2.67V487.2h-1.77l-.68-4.53h-.22a11,11,0,0,1-9.71,5.07q-6.14,0-9.39-3.82T466.6,472.8q0-7.69,3.22-11.76T479.17,457Zm0,2.45a8.38,8.38,0,0,0-7.29,3.41q-2.44,3.41-2.45,9.9,0,12.6,9.8,12.6c3.34,0,5.8-1,7.36-2.92s2.35-5.15,2.35-9.62v-.47q0-6.87-2.31-9.89T479.17,459.43Z"
        transform="translate(-256.54 -267.38)" />
    <path
        d="M547,466.88q0,10-5.27,15.18t-15.46,5.14h-9.55V447.32h10.77q9.56,0,14.53,5T547,466.88Zm-3,.11q0-8.57-4.35-12.89t-12.78-4.33h-7.34v35h6.6Q544,484.74,544,467Z"
        transform="translate(-256.54 -267.38)" />
    <path
        d="M567.5,487.74q-6.46,0-10.08-4T553.8,472.6q0-7.08,3.49-11.36A11.54,11.54,0,0,1,566.7,457a10.15,10.15,0,0,1,8.27,3.65q3,3.66,3,9.93v2.18H556.64q.06,6.11,2.85,9.33t8,3.22a24.35,24.35,0,0,0,4.45-.36,26.35,26.35,0,0,0,4.87-1.52v2.45a21.82,21.82,0,0,1-4.63,1.49A26.16,26.16,0,0,1,567.5,487.74Zm-.8-28.36a8.89,8.89,0,0,0-6.87,2.82q-2.6,2.82-3,8.14h18.33c0-3.44-.74-6.12-2.23-8.06A7.39,7.39,0,0,0,566.7,459.38Z"
        transform="translate(-256.54 -267.38)" />
    <path
        d="M592.67,487.2l-11.45-29.65H584l7.66,20.16a61.5,61.5,0,0,1,2.29,6.76h.17c.74-2.47,1.51,5.25,2.29,3.18l7.66-20.1,2.79-10L595.4,487.2Z"
        transform="translate(-256.54 -267.38)" />
    <path
        d="M623.79,487.74q-6.45,0-10.07-4T610.1,472.6q0-7.08,3.49-11.36A11.54,11.54,0,0,1,623,457a10.15,10.15,0,0,1,8.27,3.65q3,3.66,3,9.93v2.18H612.94c0,4.07,1,7.18,2.85,9.33s4.53,3.22,8,3.22a24.39,24.39,0,0,0,4.46-.36,26.35,26.35,0,0,0,4.87-1.52v2.45a22,22,0,0,1-4.63,1.49A26.2,26.2,0,0,1,623.79,487.74ZM623,459.38a8.89,8.89,0,0,0-6.87,2.82q-2.6,2.82-3,8.14h18.33c0-3.44-.74-6.12-2.23-8.06A7.39,7.39,0,0,0,623,459.38Z"
        transform="translate(-256.54 -267.38)" />
    <path d="M645.18,487.2h-2.7V444.75h2.7Z" transform="translate(-256.54 -267.38)" />
    <path
        d="M679.63,472.33q0,7.26-3.52,11.34t-9.71,4.07a12.51,12.51,0,0,1-6.87-1.88,12,12,0,0,1-4.56-5.4,19.72,19.72,0,0,1-1.58-8.13q0-7.26,3.52-11.3t9.66-4a11.87,11.87,0,0,1,9.58,4.1Q679.63,465.19,679.63,472.33Zm-23.4,0c0,4.08.89,7.25,2.68,9.54a10.15,10.15,0,0,0,15.2,0c1.79-2.29,2.68-5.46,2.68-9.54s-.9-7.26-2.71-9.52a9.23,9.23,0,0,0-7.62-3.38,9.06,9.06,0,0,0-7.57,3.37Q656.22,466.16,656.23,472.33Z"
        transform="translate(-256.54 -267.38)" />
    <path
        d="M700.53,487.74q-6.85,0-10-5.12h-.19l.08,2.29c.08,1.34.11,2.82.11,4.42v11.29h-2.7V457.55h2.29l.52,4.23h.16q3.06-4.8,9.77-4.8,6,0,9.15,3.94t3.15,11.47q0,7.31-3.31,11.33A11.1,11.1,0,0,1,700.53,487.74Zm-.06-2.4a8.22,8.22,0,0,0,7-3.38c1.67-2.25,2.5-5.41,2.5-9.46q0-13.06-9.44-13.07c-3.46,0-6,.95-7.61,2.85s-2.43,5-2.43,9.29v.87q0,7,2.33,9.93T700.47,485.34Z"
        transform="translate(-256.54 -267.38)" />
    <path
        d="M733.07,487.74q-6.47,0-10.08-4t-3.62-11.16q0-7.08,3.49-11.36a11.55,11.55,0,0,1,9.42-4.26,10.14,10.14,0,0,1,8.26,3.65q3,3.66,3,9.93v2.18H722.21q.06,6.11,2.85,9.33t8,3.22a24.54,24.54,0,0,0,4.46-.36,26.82,26.82,0,0,0,4.87-1.52v2.45a22.07,22.07,0,0,1-4.64,1.49A26.08,26.08,0,0,1,733.07,487.74Zm-.79-28.36a8.9,8.9,0,0,0-6.88,2.82q-2.6,2.82-3,8.14H740.7c0-3.44-.74-6.12-2.23-8.06A7.37,7.37,0,0,0,732.28,459.38Z"
        transform="translate(-256.54 -267.38)" />
    <path
        d="M763.43,457a22.59,22.59,0,0,1,4,.38l-.52,2.59a15.66,15.66,0,0,0-3.84-.47,7.48,7.48,0,0,0-6.22,3.22,13.13,13.13,0,0,0-2.43,8.13V487.2h-2.7V457.55H754l.28,5.34h.19a12.39,12.39,0,0,1,3.9-4.59A9.14,9.14,0,0,1,763.43,457Z"
        transform="translate(-256.54 -267.38)" />
</svg>